<svg width="229px" height="101px" viewBox="0 0 229 101" version="1.1" xmlns="http://www.w3.org/2000/svg" xmlns:xlink="http://www.w3.org/1999/xlink">
    <!-- Generator: Sketch 51.2 (57519) - http://www.bohemiancoding.com/sketch -->
    <title>ethsingapore (1)</title>
    <desc>Created with Sketch.</desc>
    <defs/>
    <g id="Page-1" stroke="none" stroke-width="1" fill="none" fill-rule="evenodd">
        <g id="ethsingapore-(1)" transform="translate(0.399057, -0.019233)" fill="#FFFFFF" fill-rule="nonzero">
            <path d="M41.2829431,46.2530174 C41.0989849,45.9976703 41,45.6909313 41,45.3762207 L41,2 C41,1.1715729 41.6715729,0.5 42.5,0.5 L95.5,0.5 C96.6753659,0.5 97.3940886,1.7904446 96.7752787,2.7897241 L88.1606763,16.7009361 C87.887224,17.1425181 87.4047922,17.411212 86.8853976,17.411212 L75.6948242,17.411212 C71.5448637,17.411212 69.6085914,19.3068349 69.5178546,22.2757204 C69.4425646,24.7391924 70.8037087,27.048584 71.7929688,27.048584 L79.5048828,27.048584 C80.6848329,27.048584 81.4027941,28.3480473 80.7747557,29.3469717 L72.5105955,42.491503 C72.0696581,43.1928344 71.1436663,43.4039254 70.4423349,42.9629881 C69.7410035,42.5220507 69.5299124,41.5960589 69.9708498,40.8947275 L76.7899798,30.048584 L71.7929688,30.048584 C68.7142763,30.048584 66.3989542,26.1202816 66.5192547,22.1840755 C66.6593271,17.6009421 69.9174572,14.411212 75.6948242,14.411212 L86.0499615,14.411212 L92.8067957,3.5 L44,3.5 L44,44.8921694 L82.0461585,97.702975 C82.7609471,98.695153 82.0519425,100.079772 80.8291016,100.079772 L64.9716797,100.079772 C64.4886574,100.079772 64.0351903,99.84717 63.7533973,99.454865 L52.7804504,84.178609 L43.2376432,99.377387 C42.7971323,100.078987 41.871269,100.290641 41.1696696,99.85013 C40.4680703,99.409619 40.2564163,98.483756 40.6969271,97.782156 L51.4264193,80.693351 C51.9929988,79.790963 53.2934447,79.750477 53.9150597,80.615874 L65.741091,97.079772 L77.8997439,97.079772 L41.2829431,46.2530174 Z M44.3187735,77.722938 C44.8202048,78.382375 44.6921154,79.323446 44.0326776,79.824877 C43.3732399,80.326308 42.4321696,80.198219 41.9307383,79.538781 L30.260084,64.190579 C30.0615806,63.929525 29.9541016,63.61061 29.9541016,63.282657 L29.9541016,22.0832876 L9.16782761,22.0832876 L4.51584521,29.6351351 L22.4541016,29.6351351 C23.2825287,29.6351351 23.9541016,30.306708 23.9541016,31.1351351 C23.9541016,31.9635623 23.2825287,32.6351351 22.4541016,32.6351351 L1.83007812,32.6351351 C0.656294284,32.6351351 -0.0626824329,31.3477991 0.552944925,30.3484136 L7.05294492,19.796566 C7.32601626,19.3532726 7.80942757,19.0832876 8.33007812,19.0832876 L31.4541016,19.0832876 C32.2825287,19.0832876 32.9541016,19.7548605 32.9541016,20.5832876 L32.9541016,62.777136 L44.3187735,77.722938 Z" id="Path-3"/>
            <path d="M31.7757835,99.357891 C31.3251752,100.053048 30.3963486,100.251294 29.7011913,99.800686 C29.006034,99.350077 28.8077879,98.421251 29.2583962,97.726094 L38.3189431,83.74831 C38.8943556,82.860617 40.1831658,82.831456 40.7981394,83.692215 L46.5530222,91.747147 C47.0346111,92.421212 46.8785783,93.358054 46.2045133,93.839643 C45.5304483,94.321232 44.5936057,94.165199 44.1120168,93.491134 L39.6379289,87.228892 L31.7757835,99.357891 Z" id="Path-3-Copy-4"/>
            <path d="M21.5259364,99.28059 C21.0864685,99.982843 20.1609208,100.195873 19.4586676,99.756405 C18.7564144,99.316937 18.5433848,98.39139 18.9828527,97.689136 L25.6127496,87.094809 C26.1708526,86.202981 27.4497456,86.147809 28.0825802,86.988259 L33.4446267,94.109442 C33.9429406,94.771238 33.8104116,95.711694 33.148615,96.210008 C32.4868184,96.708321 31.546363,96.575792 31.0480491,95.913996 L26.9984092,90.535783 L21.5259364,99.28059 Z" id="Path-3-Copy-5"/>
            <path d="M22.4208984,40.2012194 C23.2493256,40.2012194 23.9208984,40.8727923 23.9208984,41.7012194 C23.9208984,42.5296465 23.2493256,43.2012194 22.4208984,43.2012194 L6.00805664,43.2012194 C4.83467738,43.2012194 4.11563642,41.914678 4.73045014,40.9152667 L11.2304501,30.3491825 C11.6645198,29.6435799 12.5884067,29.4234589 13.2940093,29.8575286 C13.9996119,30.2915983 14.2197328,31.2154852 13.7856631,31.9210878 L8.69192606,40.2012194 L22.4208984,40.2012194 Z" id="Path-3-Copy-2"/>
            <path d="M22.4208984,50.7579761 C23.2493256,50.7579761 23.9208984,51.429549 23.9208984,52.2579761 C23.9208984,53.0864033 23.2493256,53.7579761 22.4208984,53.7579761 L10,53.7579761 C8.82060285,53.7579761 8.10254781,52.4596016 8.72947253,51.4606306 L14.7294725,41.8999517 C15.1698343,41.1982588 16.0956526,40.986408 16.7973456,41.4267698 C17.4990385,41.8671316 17.7108893,42.7929499 17.2705275,43.4946429 L12.7122738,50.7579761 L22.4208984,50.7579761 Z" id="Path-3-Copy-3"/>
            <path d="M41.5358658,3.189883 C41.0523792,2.5171778 41.2057712,1.5798992 41.8784764,1.0964127 C42.5511816,0.6129261 43.4884602,0.7663181 43.9719467,1.4390233 L78.5017319,49.4824803 C78.857288,49.9771879 78.8783113,50.6378085 78.5549295,51.1541223 L71.7619607,61.999825 C71.3222249,62.701911 70.3965959,62.914587 69.6945105,62.474851 C68.9924251,62.035116 68.7797488,61.109487 69.2194846,60.407401 L75.4777676,50.4153811 L41.5358658,3.189883 Z" id="Path-4-Copy"/>
            <path d="M41.7866464,25.4819144 C41.2995785,24.8117977 41.4479689,23.8737142 42.1180856,23.3866464 C42.7882023,22.8995785 43.7262858,23.0479689 44.2133536,23.7180856 L82.2133536,75.999167 C82.573884,76.495191 82.5961914,77.160715 82.2696849,77.679768 L75.8390209,87.902698 C75.3979185,88.603926 74.471877,88.814799 73.7706494,88.373697 C73.0694218,87.932594 72.8585486,87.006553 73.299651,86.305325 L79.1897381,76.941758 L41.7866464,25.4819144 Z" id="Path-4-Copy-2"/>
            <path d="M42.7119311,59.231314 C43.1364648,58.519933 44.0573055,58.287397 44.7686863,58.711931 C45.4800671,59.136465 45.7126026,60.057305 45.2880689,60.768686 L42.2880689,65.795713 C41.8635352,66.507094 40.9426945,66.73963 40.2313137,66.315096 C39.5199329,65.890562 39.2873974,64.969722 39.7119311,64.258341 L42.7119311,59.231314 Z" id="Path-4-Copy-12"/>
            <path d="M54.7119311,75.231314 C55.1364648,74.519933 56.0573055,74.287397 56.7686863,74.711931 C57.4800671,75.136465 57.7126026,76.057305 57.2880689,76.768686 L54.2880689,81.795713 C53.8635352,82.507094 52.9426945,82.73963 52.2313137,82.315096 C51.5199329,81.890562 51.2873974,80.969722 51.7119311,80.258341 L54.7119311,75.231314 Z" id="Path-4-Copy-14"/>
            <path d="M64.2119311,78.231314 C64.6364648,77.519933 65.5573055,77.287397 66.2686863,77.711931 C66.9800671,78.136465 67.2126026,79.057305 66.7880689,79.768686 L63.7880689,84.795713 C63.3635352,85.507094 62.4426945,85.73963 61.7313137,85.315096 C61.0199329,84.890562 60.7873974,83.969722 61.2119311,83.258341 L64.2119311,78.231314 Z" id="Path-4-Copy-13"/>
            <path d="M67.2809857,91.329238 C67.7108617,90.621073 68.6334265,90.395475 69.3415918,90.825351 C70.0497571,91.255227 70.2753552,92.177791 69.8454792,92.885957 L67.084859,97.433723 C66.654983,98.141888 65.7324182,98.367486 65.0242529,97.93761 C64.3160876,97.507734 64.0904896,96.585169 64.5203656,95.877004 L67.2809857,91.329238 Z" id="Path-4-Copy-19"/>
            <path d="M33.7549195,56.803853 C34.2167188,56.116079 35.148632,55.932891 35.8364059,56.39469 C36.5241797,56.856489 36.7073682,57.788403 36.2455688,58.476176 L32.7453247,63.689212 C32.2835253,64.376985 31.3516121,64.560174 30.6638383,64.098374 C29.9760644,63.636575 29.7928759,62.704662 30.2546753,62.016888 L33.7549195,56.803853 Z" id="Path-4-Copy-17"/>
            <path d="M45.5389478,72.25121 C45.9918648,71.557555 46.9213454,71.362398 47.6150007,71.815315 C48.308656,72.268232 48.5038129,73.197713 48.0508959,73.891368 L44.4075854,79.471202 C43.9546684,80.164857 43.0251879,80.360014 42.3315325,79.907097 C41.6378772,79.45418 41.4427203,78.5247 41.8956373,77.831044 L45.5389478,72.25121 Z" id="Path-4-Copy-20"/>
            <path d="M41.2137606,44.7282564 C41.6399829,44.017886 42.5613732,43.7875384 43.2717436,44.2137606 C43.982114,44.6399829 44.2124616,45.5613732 43.7862394,46.2717436 L40.7862394,51.2717436 C40.3600171,51.982114 39.4386268,52.2124616 38.7282564,51.7862394 C38.017886,51.3600171 37.7875384,50.4386268 38.2137606,49.7282564 L41.2137606,44.7282564 Z" id="Path-4-Copy-18"/>
            <path d="M52.3658602,60.773667 C52.7920825,60.063296 53.7134728,59.832949 54.4238432,60.259171 C55.1342136,60.685393 55.3645612,61.606783 54.938339,62.317154 L51.938339,67.317154 C51.5121168,68.027524 50.5907264,68.257872 49.880356,67.83165 C49.1699856,67.405427 48.939638,66.484037 49.3658602,65.773667 L52.3658602,60.773667 Z" id="Path-4-Copy-21"/>
            <path d="M54.2309013,15.382674 C53.7574538,16.062482 52.8225554,16.2297703 52.1427474,15.7563227 C51.4629394,15.2828752 51.2956512,14.3479769 51.7690987,13.6681689 L55.5908878,8.1805853 C56.0643353,7.5007772 56.9992336,7.333489 57.6790417,7.8069365 C58.3588497,8.2803841 58.5261379,9.2152824 58.0526904,9.8950904 L54.2309013,15.382674 Z" id="Path-4"/>
            <path d="M65,10.0351351 C64.1715729,10.0351351 63.5,9.3635623 63.5,8.5351351 C63.5,7.706708 64.1715729,7.0351351 65,7.0351351 L71.6630859,7.0351351 C72.4915131,7.0351351 73.1630859,7.706708 73.1630859,8.5351351 C73.1630859,9.3635623 72.4915131,10.0351351 71.6630859,10.0351351 L65,10.0351351 Z" id="Path-4-Copy-3"/>
            <path d="M171.952865,46.2530174 C171.768907,45.9976703 171.669922,45.6909313 171.669922,45.3762207 L171.669922,2 C171.669922,1.1715729 172.341495,0.5 173.169922,0.5 L226.169922,0.5 C227.345288,0.5 228.06401,1.7904446 227.445201,2.7897241 L218.830598,16.7009361 C218.557146,17.1425181 218.074714,17.411212 217.555319,17.411212 L206.364746,17.411212 C202.214786,17.411212 200.278513,19.3068349 200.187777,22.2757204 C200.112486,24.7391924 201.473631,27.048584 202.462891,27.048584 L210.174805,27.048584 C211.354755,27.048584 212.072716,28.3480473 211.444678,29.3469717 L203.180517,42.491503 C202.73958,43.1928344 201.813588,43.4039254 201.112257,42.9629881 C200.410925,42.5220507 200.199834,41.5960589 200.640772,40.8947275 L207.459902,30.048584 L202.462891,30.048584 C199.384198,30.048584 197.068876,26.1202816 197.189177,22.1840755 C197.329249,17.6009421 200.587379,14.411212 206.364746,14.411212 L216.719883,14.411212 L223.476718,3.5 L174.669922,3.5 L174.669922,44.8921694 L212.71608,97.702975 C213.430869,98.695153 212.721864,100.079772 211.499023,100.079772 L195.641602,100.079772 C195.158579,100.079772 194.705112,99.84717 194.423319,99.454865 L183.450372,84.178609 L173.907565,99.377387 C173.467054,100.078987 172.541191,100.290641 171.839592,99.85013 C171.137992,99.409619 170.926338,98.483756 171.366849,97.782156 L182.096341,80.693351 C182.662921,79.790963 183.963367,79.750477 184.584982,80.615874 L196.411013,97.079772 L208.569666,97.079772 L171.952865,46.2530174 Z M217.555319,14.411212 L216.280041,15.1214879 L216.719883,14.411212 L217.555319,14.411212 Z M174.988695,77.722938 C175.490127,78.382375 175.362037,79.323446 174.7026,79.824877 C174.043162,80.326308 173.102091,80.198219 172.60066,79.538781 L160.930006,64.190579 C160.731502,63.929525 160.624023,63.61061 160.624023,63.282657 L160.624023,22.0832876 L139.837749,22.0832876 L135.185767,29.6351351 L153.124023,29.6351351 C153.952451,29.6351351 154.624023,30.306708 154.624023,31.1351351 C154.624023,31.9635623 153.952451,32.6351351 153.124023,32.6351351 L132.5,32.6351351 C131.326216,32.6351351 130.607239,31.3477991 131.222867,30.3484136 L137.722867,19.796566 C137.995938,19.3532726 138.479349,19.0832876 139,19.0832876 L162.124023,19.0832876 C162.952451,19.0832876 163.624023,19.7548605 163.624023,20.5832876 L163.624023,62.777136 L174.988695,77.722938 Z" id="Path-3" transform="translate(179.334966, 50.289985) scale(-1, 1) translate(-179.334966, -50.289985) "/>
            <path d="M183.926174,99.357891 C183.475566,100.053048 182.546739,100.251294 181.851582,99.800686 C181.156425,99.350077 180.958179,98.421251 181.408787,97.726094 L190.469334,83.74831 C191.044746,82.860617 192.333556,82.831456 192.94853,83.692215 L198.703413,91.747147 C199.185002,92.421212 199.028969,93.358054 198.354904,93.839643 C197.680839,94.321232 196.743996,94.165199 196.262407,93.491134 L191.788319,87.228892 L183.926174,99.357891 Z" id="Path-3-Copy-4" transform="translate(190.075165, 91.553186) scale(-1, 1) translate(-190.075165, -91.553186) "/>
            <path d="M197.025205,99.28059 C196.585737,99.982843 195.660189,100.195873 194.957936,99.756405 C194.255683,99.316937 194.042653,98.39139 194.482121,97.689136 L201.112018,87.094809 C201.670121,86.202981 202.949014,86.147809 203.581849,86.988259 L208.943895,94.109442 C209.442209,94.771238 209.30968,95.711694 208.647884,96.210008 C207.986087,96.708321 207.045632,96.575792 206.547318,95.913996 L202.497678,90.535783 L197.025205,99.28059 Z" id="Path-3-Copy-5" transform="translate(201.749577, 93.187789) scale(-1, 1) translate(-201.749577, -93.187789) "/>
            <path d="M221.991944,40.2012194 C222.820371,40.2012194 223.491944,40.8727923 223.491944,41.7012194 C223.491944,42.5296465 222.820371,43.2012194 221.991944,43.2012194 L205.579103,43.2012194 C204.405723,43.2012194 203.686682,41.914678 204.301496,40.9152667 L210.801496,30.3491825 C211.235566,29.6435799 212.159453,29.4234589 212.865055,29.8575286 C213.570658,30.2915983 213.790779,31.2154852 213.356709,31.9210878 L208.262972,40.2012194 L221.991944,40.2012194 Z" id="Path-3-Copy-2" transform="translate(213.784339, 36.418072) scale(-1, 1) translate(-213.784339, -36.418072) "/>
            <path d="M218.000001,50.7579761 C218.828428,50.7579761 219.500001,51.429549 219.500001,52.2579761 C219.500001,53.0864033 218.828428,53.7579761 218.000001,53.7579761 L205.579103,53.7579761 C204.399705,53.7579761 203.68165,52.4596016 204.308575,51.4606306 L210.308575,41.8999517 C210.748937,41.1982588 211.674755,40.986408 212.376448,41.4267698 C213.078141,41.8671316 213.289992,42.7929499 212.84963,43.4946429 L208.291376,50.7579761 L218.000001,50.7579761 Z" id="Path-3-Copy-3" transform="translate(211.788349, 47.477538) scale(-1, 1) translate(-211.788349, -47.477538) "/>
            <path d="M149.498269,3.189883 C149.014783,2.5171778 149.168175,1.5798992 149.84088,1.0964127 C150.513585,0.6129261 151.450864,0.7663181 151.93435,1.4390233 L186.464135,49.4824803 C186.819691,49.9771879 186.840715,50.6378085 186.517333,51.1541223 L179.724364,61.999825 C179.284628,62.701911 178.358999,62.914587 177.656914,62.474851 C176.954828,62.035116 176.742152,61.109487 177.181888,60.407401 L183.440171,50.4153811 L149.498269,3.189883 Z" id="Path-4-Copy" transform="translate(167.981146, 31.759076) scale(-1, 1) translate(-167.981146, -31.759076) "/>
            <path d="M145.786646,25.4819144 C145.299579,24.8117977 145.447969,23.8737142 146.118086,23.3866464 C146.788202,22.8995785 147.726286,23.0479689 148.213354,23.7180856 L186.213354,75.999167 C186.573884,76.495191 186.596191,77.160715 186.269685,77.679768 L179.839021,87.902698 C179.397918,88.603926 178.471877,88.814799 177.770649,88.373697 C177.069422,87.932594 176.858549,87.006553 177.299651,86.305325 L183.189738,76.941758 L145.786646,25.4819144 Z" id="Path-4-Copy-2" transform="translate(165.999948, 55.852051) scale(-1, 1) translate(-165.999948, -55.852051) "/>
            <path d="M185.711931,59.231314 C186.136465,58.519933 187.057305,58.287397 187.768686,58.711931 C188.480067,59.136465 188.712603,60.057305 188.288069,60.768686 L185.288069,65.795713 C184.863535,66.507094 183.942695,66.73963 183.231314,66.315096 C182.519933,65.890562 182.287397,64.969722 182.711931,64.258341 L185.711931,59.231314 Z" id="Path-4-Copy-12" transform="translate(185.500000, 62.513513) scale(-1, 1) translate(-185.500000, -62.513513) "/>
            <path d="M173.711931,75.231314 C174.136465,74.519933 175.057305,74.287397 175.768686,74.711931 C176.480067,75.136465 176.712603,76.057305 176.288069,76.768686 L173.288069,81.795713 C172.863535,82.507094 171.942695,82.73963 171.231314,82.315096 C170.519933,81.890562 170.287397,80.969722 170.711931,80.258341 L173.711931,75.231314 Z" id="Path-4-Copy-14" transform="translate(173.500000, 78.513513) scale(-1, 1) translate(-173.500000, -78.513513) "/>
            <path d="M164.211931,78.231314 C164.636465,77.519933 165.557305,77.287397 166.268686,77.711931 C166.980067,78.136465 167.212603,79.057305 166.788069,79.768686 L163.788069,84.795713 C163.363535,85.507094 162.442695,85.73963 161.731314,85.315096 C161.019933,84.890562 160.787397,83.969722 161.211931,83.258341 L164.211931,78.231314 Z" id="Path-4-Copy-13" transform="translate(164.000000, 81.513513) scale(-1, 1) translate(-164.000000, -81.513513) "/>
            <path d="M160.915142,91.329238 C161.345018,90.621073 162.267583,90.395475 162.975748,90.825351 C163.683913,91.255227 163.909511,92.177791 163.479635,92.885957 L160.719015,97.433723 C160.289139,98.141888 159.366575,98.367486 158.658409,97.93761 C157.950244,97.507734 157.724646,96.585169 158.154522,95.877004 L160.915142,91.329238 Z" id="Path-4-Copy-19" transform="translate(160.817078, 94.381481) scale(-1, 1) translate(-160.817078, -94.381481) "/>
            <path d="M195.254675,56.803853 C195.716475,56.116079 196.648388,55.932891 197.336162,56.39469 C198.023936,56.856489 198.207124,57.788403 197.745325,58.476176 L194.245081,63.689212 C193.783281,64.376985 192.851368,64.560174 192.163594,64.098374 C191.47582,63.636575 191.292632,62.704662 191.754431,62.016888 L195.254675,56.803853 Z" id="Path-4-Copy-17" transform="translate(194.749878, 60.246532) scale(-1, 1) translate(-194.749878, -60.246532) "/>
            <path d="M183.592414,72.25121 C184.045331,71.557555 184.974811,71.362398 185.668466,71.815315 C186.362122,72.268232 186.557279,73.197713 186.104362,73.891368 L182.461051,79.471202 C182.008134,80.164857 181.078654,80.360014 180.384998,79.907097 C179.691343,79.45418 179.496186,78.5247 179.949103,77.831044 L183.592414,72.25121 Z" id="Path-4-Copy-20" transform="translate(183.026733, 75.861206) scale(-1, 1) translate(-183.026733, -75.861206) "/>
            <path d="M187.213761,44.7282564 C187.639983,44.017886 188.561373,43.7875384 189.271744,44.2137606 C189.982114,44.6399829 190.212462,45.5613732 189.786239,46.2717436 L186.786239,51.2717436 C186.360017,51.982114 185.438627,52.2124616 184.728256,51.7862394 C184.017886,51.3600171 183.787538,50.4386268 184.213761,49.7282564 L187.213761,44.7282564 Z" id="Path-4-Copy-18" transform="translate(187.000000, 48.000000) scale(-1, 1) translate(-187.000000, -48.000000) "/>
            <path d="M176.06166,60.773667 C176.487882,60.063296 177.409273,59.832949 178.119643,60.259171 C178.830013,60.685393 179.060361,61.606783 178.634139,62.317154 L175.634139,67.317154 C175.207917,68.027524 174.286526,68.257872 173.576156,67.83165 C172.865785,67.405427 172.635438,66.484037 173.06166,65.773667 L176.06166,60.773667 Z" id="Path-4-Copy-21" transform="translate(175.847900, 64.045410) scale(-1, 1) translate(-175.847900, -64.045410) "/>
            <path d="M172.409111,15.382674 C171.935664,16.062482 171.000765,16.2297703 170.320957,15.7563227 C169.641149,15.2828752 169.473861,14.3479769 169.947309,13.6681689 L173.769098,8.1805853 C174.242545,7.5007772 175.177444,7.333489 175.857252,7.8069365 C176.53706,8.2803841 176.704348,9.2152824 176.2309,9.8950904 L172.409111,15.382674 Z" id="Path-4" transform="translate(173.089104, 11.781630) scale(-1, 1) translate(-173.089104, -11.781630) "/>
            <path d="M156.336914,10.0351351 C155.508487,10.0351351 154.836914,9.3635623 154.836914,8.5351351 C154.836914,7.706708 155.508487,7.0351351 156.336914,7.0351351 L163,7.0351351 C163.828427,7.0351351 164.5,7.706708 164.5,8.5351351 C164.5,9.3635623 163.828427,10.0351351 163,10.0351351 L156.336914,10.0351351 Z" id="Path-4-Copy-3" transform="translate(159.668457, 8.535135) scale(-1, 1) translate(-159.668457, -8.535135) "/>
            <path d="M112.756209,8.6225242 C113.338805,7.65144 114.74617,7.6514458 115.328758,8.6225347 L141.68911,52.5613966 C142.116177,53.2732552 141.883856,54.196615 141.170753,54.621602 L114.810401,70.331552 C114.337283,70.613516 113.747691,70.613519 113.27457,70.331558 L86.9137301,54.621608 C86.200616,54.196622 85.9682914,53.2732494 86.3953692,52.5613861 L112.756209,8.6225242 Z M89.7418713,52.8147133 L114.042473,67.296849 L138.342618,52.8147175 L114.042469,12.3099118 L89.7418713,52.8147133 Z" id="Path-10"/>
            <path d="M88.6547266,54.493149 C87.909381,54.854744 87.0120278,54.543653 86.6504323,53.7983077 C86.2888367,53.052962 86.5999277,52.1556089 87.3452734,51.7940134 L113.04498,39.326108 C113.455531,39.1269344 113.93442,39.125472 114.346179,39.3221344 L140.450671,51.7900398 C141.198211,52.1470765 141.514777,53.0425129 141.15774,53.7900531 C140.800704,54.537593 139.905267,54.854159 139.157727,54.497122 L113.704791,42.3404099 L88.6547266,54.493149 Z" id="Path-11"/>
            <path d="M115.5,67.318919 C115.5,68.147346 114.828427,68.818919 114,68.818919 C113.171573,68.818919 112.5,68.147346 112.5,67.318919 L112.5,10.0108108 C112.5,9.1823837 113.171573,8.5108108 114,8.5108108 C114.828427,8.5108108 115.5,9.1823837 115.5,10.0108108 L115.5,67.318919 Z" id="Rectangle-6"/>
            <path d="M115.5,96.47027 C115.5,97.298697 114.828427,97.97027 114,97.97027 C113.171573,97.97027 112.5,97.298697 112.5,96.47027 L112.5,77.87027 C112.5,77.041843 113.171573,76.37027 114,76.37027 C114.828427,76.37027 115.5,77.041843 115.5,77.87027 L115.5,96.47027 Z" id="Rectangle-6"/>
            <path d="M139.628898,60.5941 C141.024366,59.753582 142.570737,61.427371 141.622586,62.752064 L115.262234,99.580933 C114.663908,100.416873 113.421068,100.416879 112.822735,99.580944 L86.4618948,62.752075 C85.5137312,61.42739 87.0600886,59.753587 88.4555641,60.594093 L114.042473,76.005303 L139.628898,60.5941 Z M114.816404,76.471448 L113.268546,76.471454 L114.042473,76.005303 L114.816404,76.471448 Z M114.816414,79.041299 C114.340309,79.328067 113.744665,79.328069 113.268557,79.041306 L93.1273524,66.91009 L114.042469,96.13071 L134.957171,66.91009 L114.816414,79.041299 Z" id="Path-10"/>
        </g>
    </g>
<head xmlns=""/></svg>