<svg xmlns="http://www.w3.org/2000/svg" viewBox="0 0 1567.5249 594.99997"><defs><style>.cls-1{fill:#9eeaf8;}.cls-2{fill:#39a0ed;}</style></defs><title>Untitled-1</title><g id="LOGO_DARK_BLUE" data-name="LOGO DARK BLUE"><path class="cls-1" d="M510.023,244.2207a22.26061,22.26061,0,0,1,5.0166,14.42285q0,9.61377-4.66846,15.95508a27.32981,27.32981,0,0,1-12.2622,9.33594,44.96392,44.96392,0,0,1-16.65186,2.99609H451.49756v-100.749h26.05762q15.46728,0,23.96777,6.34082,8.49756,6.34278,8.5,19.02149a26.42915,26.42915,0,0,1-3.55322,13.86425,24.41675,24.41675,0,0,1-10.103,9.2666A31.949,31.949,0,0,1,510.023,244.2207Zm-45.00879-14.00488h15.32813q7.80176,0,11.77441-4.459a16.53163,16.53163,0,0,0,3.97168-11.42676q0-7.66113-4.73779-11.42578-4.73877-3.76318-13.23829-3.7627H465.01416ZM495.3916,270.418q5.71216-3.97119,5.71289-11.63574,0-7.9424-6.20068-11.70508a28.35841,28.35841,0,0,0-14.98-3.7627H465.01416v31.0752h15.88525Q489.67822,274.38965,495.3916,270.418Z"/><path class="cls-1" d="M551.26807,186.18164V273.832h51.27929v13.09863h-64.7959v-100.749Z"/><path class="cls-1" d="M623.311,210.98633a52.9079,52.9079,0,0,1,18.74169-18.88184,50.3547,50.3547,0,0,1,51.34913,0,53.33086,53.33086,0,0,1,18.88183,18.88184,49.33232,49.33232,0,0,1,7.03662,25.63965,49.94442,49.94442,0,0,1-6.96728,25.77929,51.46049,51.46049,0,0,1-18.88135,18.74219A51.23561,51.23561,0,0,1,616.34326,236.626,49.6744,49.6744,0,0,1,623.311,210.98633Zm11.98339,44.87012A37.60919,37.60919,0,0,0,649.02,269.791,37.03124,37.03124,0,0,0,700.439,255.92578a40.01087,40.01087,0,0,0-.06982-38.66894,37.5093,37.5093,0,0,0-13.65576-14.07422,36.319,36.319,0,0,0-18.95117-5.15528A35.92837,35.92837,0,0,0,648.811,203.252a37.48139,37.48139,0,0,0-13.58594,14.14453,39.26827,39.26827,0,0,0-4.94678,19.36915A37.81911,37.81911,0,0,0,635.29443,255.85645Z"/><path class="cls-1" d="M803.69434,285.32813a47.06962,47.06962,0,0,1-16.2334,2.71777q-15.468,0-27.24268-6.82813A47.17118,47.17118,0,0,1,742.103,262.82324a52.15292,52.15292,0,0,1-6.34033-25.5,55.70463,55.70463,0,0,1,6.41015-26.82519,47.41486,47.41486,0,0,1,17.7666-18.67188,49.29632,49.29632,0,0,1,25.709-6.75879,54.79252,54.79252,0,0,1,15.88574,2.2295,55.54739,55.54739,0,0,1,13.23828,5.85253l-5.43457,12.68067q-11.56786-7.80176-23.27148-7.80274a33.53814,33.53814,0,0,0-18.04493,5.15528,38.00016,38.00016,0,0,0-13.23779,14.00488,39.16157,39.16157,0,0,0-4.94678,19.43848,42.2092,42.2092,0,0,0,4.52881,19.64843A33.24364,33.24364,0,0,0,767.32471,270a40.30031,40.30031,0,0,0,42.98779-2.71777l5.71387,12.124A60.00949,60.00949,0,0,1,803.69434,285.32813Z"/><path class="cls-1" d="M852.11523,231.749l1.67188-2.64746,41.24609-42.91992h17.418l-41.66406,43.19824,44.0332,57.55078H897.68164l-36.78809-48.91113-8.5,8.22168.13965,40.68945H838.73828v-100.749H852.5332v40.55078Z"/><path class="cls-1" d="M991.11328,285.32813a47.07115,47.07115,0,0,1-16.23437,2.71777q-15.4673,0-27.24219-6.82813a47.17458,47.17458,0,0,1-18.11524-18.39453,52.14732,52.14732,0,0,1-6.33984-25.5,55.699,55.699,0,0,1,6.41016-26.82519,47.41247,47.41247,0,0,1,17.76562-18.67188,49.29856,49.29856,0,0,1,25.71-6.75879,54.80222,54.80222,0,0,1,15.88575,2.2295,55.5823,55.5823,0,0,1,13.23828,5.85253l-5.43555,12.68067q-11.56641-7.80176-23.27051-7.80274a33.54262,33.54262,0,0,0-18.0459,5.15528,37.99891,37.99891,0,0,0-13.2373,14.00488,39.16634,39.16634,0,0,0-4.94629,19.43848,42.20294,42.20294,0,0,0,4.52832,19.64843A33.24051,33.24051,0,0,0,954.74316,270a40.30118,40.30118,0,0,0,42.98829-2.71777l5.71386,12.124A60.03409,60.03409,0,0,1,991.11328,285.32813Z"/><path class="cls-1" d="M1106.002,286.93066h-13.5166V242.75781h-52.81152v44.17285h-13.51758v-100.749h13.51758v43.61621h52.81152V186.18164h13.5166Z"/><path class="cls-1" d="M1187.79688,260.45508h-38.73829l-10.72949,26.47558h-13.37793L1168.98535,182.002h.83594l44.0332,104.92871h-15.60644Zm-4.59766-11.70606-14.35352-36.78711L1153.93555,248.749Z"/><path class="cls-1" d="M1246.18164,186.18164v100.749H1232.665v-100.749Z"/><path class="cls-1" d="M1362.95313,186.18164V290.27539h-.418L1288.541,215.167l.27929,71.76367h-13.65625V183.11719h.69727l73.85351,75.94433-.27929-72.87988Z"/><path class="cls-2" d="M1055.13477,360.2666h-31.83789l-9.56153,23.9043H1008.751l30.51562-75.375h.40723l30.51562,75.375h-5.59472Zm-1.83106-4.67871-13.93555-35.501-14.24023,35.501Z"/><path class="cls-2" d="M1122.98145,311.94922v4.78125h-21.25977V384.1709h-4.98438V316.73047h-21.05566v-4.78125Z"/><path class="cls-2" d="M1232.02246,311.94922v73.95117h-.20312l-55.64063-62.66016.10254,60.93067h-4.88281V310.42383h.30469l55.64062,63.168-.10156-61.64258Z"/><path class="cls-2" d="M1296.51172,311.94922v4.78125h-21.25879V384.1709h-4.98438V316.73047h-21.05566v-4.78125Z"/><path class="cls-2" d="M1320.82324,370.59082a17.6259,17.6259,0,0,0,7.06934,7.12109,20.82552,20.82552,0,0,0,10.22265,2.49219,21.0422,21.0422,0,0,0,10.32422-2.49219,17.97347,17.97347,0,0,0,7.12012-7.12109,21.78784,21.78784,0,0,0,2.59375-10.833V311.94922h4.88281v48.11426a26.04106,26.04106,0,0,1-3.25488,13.32519,22.14606,22.14606,0,0,1-8.90039,8.59571,28.44416,28.44416,0,0,1-25.42969,0,22.13383,22.13383,0,0,1-8.90039-8.59571,26.03132,26.03132,0,0,1-3.25488-13.32519V311.94922h4.98437v47.80859A22.13078,22.13078,0,0,0,1320.82324,370.59082Z"/><g id="Connectors"><polygon id="top" class="cls-2" points="193.393 333.699 351.398 235.109 359.703 239.807 203.248 339.529 193.393 333.699"/><polygon id="bottom" class="cls-1" points="396 403.042 228.384 306.956 228.384 296.167 396 392.5 396 403.042"/></g><g id="TOP-2" data-name="TOP"><polygon id="Tright_face" data-name="Tright face" class="cls-1" points="352.384 170.5 396 196.296 396 254.042 352.384 228.956 352.384 170.5"/><polygon id="Tbottom_face" data-name="Tbottom face" class="cls-2" points="351.398 235.109 317.393 255.699 351.398 275.815 387.375 255.462 351.398 235.109"/><polygon id="Tleft_face" data-name="Tleft face" class="cls-1" points="352.384 173.103 309.754 198.19 309.754 252.149 352.384 226.944 352.384 228.956 308.029 255.462 308.029 196.533 352.384 170.855 352.384 173.103"/></g><g id="LEFT"><polygon id="Lleft_face" data-name="Lleft face" class="cls-1" points="228.384 251.103 185.754 276.19 185.754 330.149 228.384 304.944 228.384 306.956 184.029 333.462 184.029 274.533 228.384 248.855 228.384 251.103"/><polygon id="Lbottom_face" data-name="Lbottom face" class="cls-2" points="227.398 313.109 193.393 333.699 227.398 353.815 263.375 333.462 227.398 313.109"/><polygon id="Lright_face" data-name="Lright face" class="cls-1" points="228.384 248.5 272 274.296 272 332.042 228.384 306.956 228.384 248.5"/></g><g id="BOTTOM-2" data-name="BOTTOM"><polygon id="Bleft_face" data-name="Bleft face" class="cls-1" points="352.384 322.103 309.754 347.19 309.754 401.149 352.384 375.944 352.384 377.956 308.029 404.462 308.029 345.533 352.384 319.855 352.384 322.103"/><polygon id="Bbottom_face" data-name="Bbottom face" class="cls-2" points="351.398 384.109 317.393 404.699 351.398 424.815 387.375 404.462 351.398 384.109"/><polygon id="Bright_face" data-name="Bright face" class="cls-1" points="352.384 319.5 396 345.296 396 403.042 352.384 377.956 352.384 319.5"/></g></g></svg>