<svg xmlns="http://www.w3.org/2000/svg" viewBox="0 0 38 34"><defs><style>.cls-1{fill:#39a0ed;}.cls-2{fill:#9eeaf8;}</style></defs><title>SmallLogo</title><g id="SMALL_LOGO_DARK" data-name="SMALL LOGO DARK"><g id="Connectors_copy_5" data-name="Connectors copy 5"><polygon id="top-2" data-name="top" class="cls-1" points="7.75 21.529 26.231 10.224 27.202 10.763 8.903 22.197 7.75 21.529"/><polygon id="bottom-2" data-name="bottom" class="cls-2" points="31.448 29.48 11.843 18.462 11.843 17.225 31.448 28.271 31.448 29.48"/></g><g id="TOP_copy_2" data-name="TOP copy 2"><polygon id="Tright_face" data-name="Tright face" class="cls-2" points="26.346 2.816 31.448 5.774 31.448 12.395 26.346 9.519 26.346 2.816"/><polygon id="Tbottom_face" data-name="Tbottom face" class="cls-1" points="26.231 10.224 22.253 12.585 26.231 14.892 30.439 12.558 26.231 10.224"/><polygon id="Tleft_face" data-name="Tleft face" class="cls-2" points="26.346 3.115 21.36 5.991 21.36 12.178 26.346 9.288 26.346 9.519 21.158 12.558 21.158 5.801 26.346 2.857 26.346 3.115"/></g><g id="LEFT_copy_2" data-name="LEFT copy 2"><polygon id="Lleft_face" data-name="Lleft face" class="cls-2" points="11.843 12.058 6.857 14.935 6.857 21.122 11.843 18.232 11.843 18.462 6.655 21.502 6.655 14.745 11.843 11.801 11.843 12.058"/><polygon id="Lbottom_face" data-name="Lbottom face" class="cls-1" points="11.727 19.168 7.75 21.529 11.727 23.835 15.935 21.502 11.727 19.168"/><polygon id="Lright_face" data-name="Lright face" class="cls-2" points="11.843 11.76 16.944 14.718 16.944 21.339 11.843 18.462 11.843 11.76"/></g><g id="BOTTOM_copy_2" data-name="BOTTOM copy 2"><polygon id="Bleft_face" data-name="Bleft face" class="cls-2" points="26.346 20.199 21.36 23.076 21.36 29.263 26.346 26.373 26.346 26.603 21.158 29.642 21.158 22.886 26.346 19.941 26.346 20.199"/><polygon id="Bbottom_face" data-name="Bbottom face" class="cls-1" points="26.231 27.309 22.253 29.67 26.231 31.976 30.439 29.642 26.231 27.309"/><polygon id="Bright_face" data-name="Bright face" class="cls-2" points="26.346 19.901 31.448 22.859 31.448 29.48 26.346 26.603 26.346 19.901"/></g></g></svg>