<svg xmlns="http://www.w3.org/2000/svg" viewBox="0 0 153 36"><defs><style>.cls-1{fill:#9eeaf8;}.cls-2{fill:#39a0ed;}</style></defs><title>Logo</title><g id="SMALL_LOGO_DARK" data-name="SMALL LOGO DARK"><path class="cls-1" d="M44.39307,13.2666a2.45428,2.45428,0,0,1,.55273,1.58985,2.88712,2.88712,0,0,1-.51465,1.75927,3.01584,3.01584,0,0,1-1.35156,1.0293,4.96261,4.96261,0,0,1-1.83594.33008H37.94092V6.86816h2.87256a4.35106,4.35106,0,0,1,2.64257.69922,2.44869,2.44869,0,0,1,.937,2.09668,2.91452,2.91452,0,0,1-.39209,1.52881,2.69449,2.69449,0,0,1-1.11328,1.02149A3.52028,3.52028,0,0,1,44.39307,13.2666Zm-4.96192-1.54394h1.68946A1.64719,1.64719,0,0,0,42.419,11.231a1.82163,1.82163,0,0,0,.438-1.25977,1.51038,1.51038,0,0,0-.52246-1.25928,2.2901,2.2901,0,0,0-1.45947-.415H39.43115Zm3.34864,4.43213a1.46332,1.46332,0,0,0,.62988-1.28272,1.40219,1.40219,0,0,0-.6836-1.29053,3.12688,3.12688,0,0,0-1.65136-.415H39.43115v3.42579h1.751A2.7343,2.7343,0,0,0,42.77979,16.15479Z"/><path class="cls-1" d="M48.93994,6.86816v9.66309h5.65332V17.9751H47.44971V6.86816Z"/><path class="cls-1" d="M56.88184,9.60254A5.83725,5.83725,0,0,1,58.94824,7.521a5.55331,5.55331,0,0,1,5.66065,0,5.87925,5.87925,0,0,1,2.08154,2.08154,5.43873,5.43873,0,0,1,.77588,2.82666,5.50514,5.50514,0,0,1-.76807,2.84228A5.67287,5.67287,0,0,1,64.6167,17.3374a5.6486,5.6486,0,0,1-8.50293-4.9082A5.4776,5.4776,0,0,1,56.88184,9.60254Zm1.32129,4.94678a4.148,4.148,0,0,0,1.51318,1.53613,4.0824,4.0824,0,0,0,5.66846-1.52832,4.41044,4.41044,0,0,0-.00782-4.26318,4.13366,4.13366,0,0,0-1.50537-1.55127,4.00353,4.00353,0,0,0-2.08935-.56885A3.962,3.962,0,0,0,59.69336,8.75a4.13274,4.13274,0,0,0-1.498,1.55957,4.32734,4.32734,0,0,0-.54541,2.13525A4.16928,4.16928,0,0,0,58.20313,14.54932Z"/><path class="cls-1" d="M76.76855,17.79834a5.1912,5.1912,0,0,1-1.79.2998,5.87529,5.87529,0,0,1-3.00293-.75293,5.19769,5.19769,0,0,1-1.99707-2.02783,5.74786,5.74786,0,0,1-.69922-2.811,6.14253,6.14253,0,0,1,.70654-2.95752,5.23137,5.23137,0,0,1,1.959-2.0586,5.43516,5.43516,0,0,1,2.834-.74462,6.045,6.045,0,0,1,1.75146.2456,6.1384,6.1384,0,0,1,1.45948.645l-.59912,1.39795a4.55649,4.55649,0,0,0-2.56543-.86035,3.69446,3.69446,0,0,0-1.98926.56885,4.18492,4.18492,0,0,0-1.45948,1.54345,4.31827,4.31827,0,0,0-.54541,2.14307,4.65131,4.65131,0,0,0,.499,2.166,3.66511,3.66511,0,0,0,1.42871,1.51319,4.44316,4.44316,0,0,0,4.73926-.29932l.62988,1.33643A6.61005,6.61005,0,0,1,76.76855,17.79834Z"/><path class="cls-1" d="M82.106,11.8916l.18457-.292L86.8374,6.86816h1.92041l-4.59326,4.76221L89.019,17.9751H87.12939L83.07373,12.583l-.937.90625.01562,4.48584h-1.521V6.86816h1.521v4.47071Z"/><path class="cls-1" d="M97.43018,17.79834a5.19126,5.19126,0,0,1-1.79.2998,5.87529,5.87529,0,0,1-3.00293-.75293,5.19769,5.19769,0,0,1-1.99707-2.02783,5.74786,5.74786,0,0,1-.69922-2.811,6.14253,6.14253,0,0,1,.70654-2.95752,5.23132,5.23132,0,0,1,1.959-2.0586,5.4351,5.4351,0,0,1,2.834-.74462,6.045,6.045,0,0,1,1.75146.2456,6.13822,6.13822,0,0,1,1.45948.645l-.59912,1.39795a4.55649,4.55649,0,0,0-2.56543-.86035,3.69449,3.69449,0,0,0-1.98926.56885,4.1849,4.1849,0,0,0-1.45947,1.54345,4.31817,4.31817,0,0,0-.54541,2.14307,4.6513,4.6513,0,0,0,.499,2.166,3.66511,3.66511,0,0,0,1.42871,1.51319,4.44316,4.44316,0,0,0,4.73926-.29932l.62988,1.33643A6.6102,6.6102,0,0,1,97.43018,17.79834Z"/><path class="cls-1" d="M110.09521,17.9751h-1.48974V13.10547H102.7832V17.9751H101.293V6.86816h1.49023v4.8086h5.82227V6.86816h1.48974Z"/><path class="cls-1" d="M119.11279,15.05615h-4.2705l-1.18311,2.919h-1.47461l4.85449-11.56787h.0918l4.85449,11.56787h-1.7207Zm-.50683-1.29052-1.58252-4.05518-1.64356,4.05518Z"/><path class="cls-1" d="M125.54932,6.86816V17.9751h-1.49024V6.86816Z"/><path class="cls-1" d="M138.42285,6.86816V18.34375h-.04639l-8.15722-8.28027L130.25,17.9751h-1.50537V6.53027h.07666l8.14209,8.37256-.03076-8.03467Z"/><path class="cls-2" d="M104.48828,26.05957H100.978l-1.05371,2.63525h-.54981l3.36426-8.30957h.04492l3.36426,8.30957h-.6167Zm-.20215-.51611L102.75,21.62988l-1.56982,3.91358Z"/><path class="cls-2" d="M111.96777,20.73291v.52686H109.624v7.43505h-.54931v-7.435h-2.32129v-.52686Z"/><path class="cls-2" d="M123.98877,20.73291v8.15234h-.02246l-6.13379-6.90771.01123,6.71728h-.53857V20.56494h.03369l6.13379,6.96387-.01123-6.7959Z"/><path class="cls-2" d="M131.09814,20.73291v.52686h-2.34375v7.43505h-.54931v-7.435h-2.32129v-.52686Z"/><path class="cls-2" d="M133.77832,27.19775a1.93991,1.93991,0,0,0,.7793.78516,2.29644,2.29644,0,0,0,1.127.27441,2.32018,2.32018,0,0,0,1.13818-.27441,1.9845,1.9845,0,0,0,.78516-.78516,2.4055,2.4055,0,0,0,.28564-1.19433V20.73291h.53858v5.3042a2.87123,2.87123,0,0,1-.35889,1.46924,2.439,2.439,0,0,1-.98144.94726,3.13251,3.13251,0,0,1-2.80323,0,2.43907,2.43907,0,0,1-.98144-.94726,2.87123,2.87123,0,0,1-.35889-1.46924v-5.3042h.54981v5.27051A2.44085,2.44085,0,0,0,133.77832,27.19775Z"/><g id="Connectors_copy_6" data-name="Connectors copy 6"><polygon id="top-2" data-name="top" class="cls-2" points="9.487 23.13 26.906 12.261 27.821 12.779 10.573 23.773 9.487 23.13"/><polygon id="bottom-2" data-name="bottom" class="cls-1" points="31.823 30.775 13.344 20.182 13.344 18.993 31.823 29.613 31.823 30.775"/></g><g id="TOP_copy_3" data-name="TOP copy 3"><polygon id="Tright_face" data-name="Tright face" class="cls-1" points="27.015 5.139 31.823 7.983 31.823 14.349 27.015 11.583 27.015 5.139"/><polygon id="Tbottom_face" data-name="Tbottom face" class="cls-2" points="26.906 12.261 23.157 14.531 26.906 16.749 30.872 14.505 26.906 12.261"/><polygon id="Tleft_face" data-name="Tleft face" class="cls-1" points="27.015 5.426 22.315 8.191 22.315 14.14 27.015 11.361 27.015 11.583 22.125 14.505 22.125 8.009 27.015 5.178 27.015 5.426"/></g><g id="LEFT_copy_3" data-name="LEFT copy 3"><polygon id="Lleft_face" data-name="Lleft face" class="cls-1" points="13.344 14.025 8.645 16.79 8.645 22.739 13.344 19.96 13.344 20.182 8.455 23.104 8.455 16.608 13.344 13.777 13.344 14.025"/><polygon id="Lbottom_face" data-name="Lbottom face" class="cls-2" points="13.236 20.86 9.487 23.13 13.236 25.348 17.202 23.104 13.236 20.86"/><polygon id="Lright_face" data-name="Lright face" class="cls-1" points="13.344 13.738 18.153 16.582 18.153 22.948 13.344 20.182 13.344 13.738"/></g><g id="BOTTOM_copy_3" data-name="BOTTOM copy 3"><polygon id="Bleft_face" data-name="Bleft face" class="cls-1" points="27.015 21.852 22.315 24.618 22.315 30.566 27.015 27.788 27.015 28.009 22.125 30.931 22.125 24.435 27.015 21.604 27.015 21.852"/><polygon id="Bbottom_face" data-name="Bbottom face" class="cls-2" points="26.906 28.688 23.157 30.958 26.906 33.175 30.872 30.931 26.906 28.688"/><polygon id="Bright_face" data-name="Bright face" class="cls-1" points="27.015 21.565 31.823 24.409 31.823 30.775 27.015 28.009 27.015 21.565"/></g></g></svg>