<svg xmlns="http://www.w3.org/2000/svg" viewBox="0 0 682.84174 632"><defs><style>.cls-1{fill:#39a0ed;}.cls-2{fill:#9eeaf8;}</style></defs><title>TransparentBG</title><g id="ONLY_LOGO_DARK" data-name="ONLY LOGO DARK"><g id="Connectors_copy_4" data-name="Connectors copy 4"><polygon id="top-2" data-name="top" class="cls-1" points="154.85 380.809 456.856 196.078 472.73 204.881 173.687 391.733 154.85 380.809"/><polygon id="bottom-2" data-name="bottom" class="cls-2" points="542.106 510.74 221.731 330.7 221.731 310.484 542.106 490.987 542.106 510.74"/></g><g id="TOP_copy" data-name="TOP copy"><polygon id="Tright_face" data-name="Tright face" class="cls-2" points="458.74 75.018 542.106 123.353 542.106 231.554 458.74 184.548 458.74 75.018"/><polygon id="Tbottom_face" data-name="Tbottom face" class="cls-1" points="456.856 196.078 391.859 234.658 456.856 272.35 525.621 234.214 456.856 196.078"/><polygon id="Tleft_face" data-name="Tleft face" class="cls-2" points="458.74 79.896 377.258 126.901 377.258 228.006 458.74 180.779 458.74 184.548 373.961 234.214 373.961 123.797 458.74 75.683 458.74 79.896"/></g><g id="LEFT_copy" data-name="LEFT copy"><polygon id="Lleft_face" data-name="Lleft face" class="cls-2" points="221.731 226.047 140.249 273.052 140.249 374.157 221.731 326.931 221.731 330.7 136.952 380.366 136.952 269.948 221.731 221.834 221.731 226.047"/><polygon id="Lbottom_face" data-name="Lbottom face" class="cls-1" points="219.847 342.229 154.85 380.809 219.847 418.502 288.612 380.366 219.847 342.229"/><polygon id="Lright_face" data-name="Lright face" class="cls-2" points="221.731 221.169 305.097 269.504 305.097 377.705 221.731 330.7 221.731 221.169"/></g><g id="BOTTOM_copy" data-name="BOTTOM copy"><polygon id="Bleft_face" data-name="Bleft face" class="cls-2" points="458.74 359.082 377.258 406.087 377.258 507.193 458.74 459.966 458.74 463.735 373.961 513.401 373.961 402.983 458.74 354.869 458.74 359.082"/><polygon id="Bbottom_face" data-name="Bbottom face" class="cls-1" points="456.856 475.265 391.859 513.844 456.856 551.537 525.621 513.401 456.856 475.265"/><polygon id="Bright_face" data-name="Bright face" class="cls-2" points="458.74 354.204 542.106 402.54 542.106 510.74 458.74 463.735 458.74 354.204"/></g></g></svg>